<svg preserveAspectRatio="none" overflow="visible" style="display: block;" width="32" height="32" viewBox="0 0 32 32" fill="none" xmlns="http://www.w3.org/2000/svg">
<g id="Icon/System">
<g id="Union">
<path fill-rule="evenodd" clip-rule="evenodd" d="M8.82031 11.3203C8.34934 9.7864 9.78638 8.35073 11.3203 8.82227L27.2656 13.7285C28.2735 14.0389 28.5891 15.3087 27.8437 16.0547L24.7773 19.1211L26.8984 21.2422C27.6795 22.0232 27.6795 23.2893 26.8984 24.0703L24.0703 26.9004C23.2893 27.6806 22.023 27.6809 21.2422 26.9004L19.1211 24.7773L16.0547 27.8438C15.3087 28.5894 14.0388 28.2737 13.7285 27.2656L8.82031 11.3203ZM15.3477 25.7246L18.1309 22.9395C18.6775 22.3931 19.5647 22.3931 20.1113 22.9395L22.6562 25.4844L25.4844 22.6563L22.9394 20.1113C22.393 19.5646 22.3929 18.6775 22.9394 18.1309L25.7246 15.3477L10.7324 10.7324L15.3477 25.7246Z" fill="#AAB8B6"/>
<path d="M12 4C14.9113 4 17.4591 5.55633 18.8574 7.87695C19.1417 8.34987 18.9883 8.96317 18.5156 9.24805C18.0426 9.53309 17.4276 9.38125 17.1426 8.9082C16.091 7.16351 14.1811 6 12 6C8.68629 6 6 8.68629 6 12C6 14.0381 7.01541 15.8398 8.57226 16.9258C9.02489 17.2418 9.13617 17.8655 8.82031 18.3184C8.5043 18.7707 7.88049 18.882 7.42773 18.5664C5.35762 17.1225 4 14.7194 4 12C4 7.58172 7.58172 4 12 4Z" fill="#AAB8B6"/>
</g>
</g>
</svg>
